<!--?xml version="1.0" encoding="utf-8"?-->
<!-- Generator: Adobe Illustrator 18.0.0, SVG Export Plug-In . SVG Version: 6.00 Build 0)  -->

<svg version="1.1" id="_x31_0" xmlns="http://www.w3.org/2000/svg" xmlns:xlink="http://www.w3.org/1999/xlink" x="0px" y="0px" viewBox="0 0 512 512" style="width: 512px; height: 512px; opacity: 1;" xml:space="preserve">
<style type="text/css">
	.st0{fill:#374149;}
</style>
<g>
	<polygon class="st0" points="226.894,239.184 199.149,239.184 199.149,268.688 199.149,268.707 176.164,268.707 166.11,268.637 
		203.606,193.648 220.234,160.547 220.156,160.547 220.234,160.387 188.715,160.387 134.558,268.707 134.558,295.68 
		134.558,295.848 134.558,295.848 134.558,296.008 199.149,296.008 199.149,318.129 199.149,318.266 199.149,318.266 
		199.149,318.426 226.894,318.426 226.894,296.008 241.32,296.008 241.32,268.707 226.894,268.707 	"></polygon>
	<path class="st0" d="M274.84,307.551c4.438,3.992,9.543,7.027,15.316,9.098c5.77,2.07,11.906,3.11,18.422,3.11
		c6.359,0,12.465-1.039,18.312-3.11c5.844-2.07,10.95-5.106,15.313-9.098c4.363-3.996,7.844-8.914,10.434-14.762
		c2.586-5.844,3.886-12.543,3.886-20.09v-66.586c0-7.546-1.301-14.242-3.886-20.09c-2.59-5.844-6.07-10.766-10.434-14.762
		c-4.363-3.992-9.469-7.024-15.313-9.098c-5.847-2.07-11.953-3.11-18.312-3.11c-6.516,0-12.653,1.039-18.422,3.11
		c-5.773,2.074-10.878,5.106-15.316,9.098c-4.442,3.996-7.957,8.918-10.543,14.762c-2.594,5.848-3.886,12.543-3.886,20.09V272.7
		c0,7.546,1.293,14.246,3.886,20.09C266.883,298.637,270.398,303.555,274.84,307.551z M308.578,293.789
		c-5.774,0-10.434-1.886-13.985-5.66c-3.55-3.774-5.328-8.992-5.328-15.649v-65.926c0-6.656,1.778-11.91,5.328-15.758
		c3.551-3.848,8.211-5.774,13.985-5.774c5.77,0,10.394,1.926,13.871,5.774c3.476,3.847,5.218,9.102,5.218,15.758v65.926
		c0,6.657-1.742,11.875-5.218,15.649C318.973,291.903,314.348,293.789,308.578,293.789z"></path>
	<path class="st0" d="M80,256c0-23.438,4.641-45.84,13.039-66.321l-63.722-36.789l-5.969-3.465
		c-0.004,0.004-0.008,0.012-0.008,0.012l-0.141-0.078C8.32,181.84,0,217.922,0,256c0,38.082,8.32,74.16,23.282,106.64l69.758-40.32
		C84.641,301.84,80,279.441,80,256z M35.375,327.891C27.817,304.828,24,280.746,24,256c0-24.719,3.809-48.809,11.348-71.914
		l28.507,16.457C58.637,218.496,56,237.071,56,256c0,18.934,2.637,37.511,7.855,55.469l-23.742,13.722L35.375,327.891z"></path>
	<path class="st0" d="M394.879,148.082l63.75-36.836l6.039-3.473c0-0.003-0.004-0.007-0.008-0.011l0.141-0.082
		C424.805,51.672,362.906,12.422,291.637,2.524c-3.809-0.535-7.629-1.039-11.477-1.402V1.14c-0.054-0.007-0.106-0.015-0.16-0.019
		V81.68C326.558,88,367.359,112.64,394.879,148.082z"></path>
	<path class="st0" d="M117.121,148.082C144.641,112.64,185.442,88,232,81.68V8.648l0.016-7.371
		c-0.004,0.004-0.012,0.004-0.012,0.004L232,1.121C161.238,7.656,98.918,43.028,56.676,95.344c-0.344,0.426-0.711,0.828-1.055,1.254
		c-1.488,1.871-2.89,3.812-4.328,5.726c-1.336,1.766-2.718,3.488-4.011,5.297l0.015,0.012c-0.031,0.042-0.066,0.082-0.098,0.129
		L117.121,148.082z M83.402,100.895c32.957-36.66,76.574-61.84,124.598-71.93V61.84c-36.687,8.985-69.82,28.141-96.058,55.551
		l-23.742-13.695L83.402,100.895z"></path>
	<path class="st0" d="M490.527,153.324c-0.562-1.297-1.062-2.614-1.648-3.906l-0.016,0.012c-0.023-0.051-0.039-0.102-0.062-0.149
		l-69.84,40.321C427.359,210.082,432,232.48,432,256c0,23.519-4.641,45.922-13.039,66.402l69.758,40.238
		C503.68,330.16,512,294.082,512,256C512,219.48,504.278,184.762,490.527,153.324z"></path>
	<path class="st0" d="M117.121,363.922l-63.859,36.867l-5.851,3.359c0.004,0.004,0.007,0.008,0.011,0.012l-0.14,0.082
		c42,59.118,108.48,99.52,184.718,106.637V430.32C185.442,424,144.641,399.36,117.121,363.922z"></path>
	<path class="st0" d="M394.879,363.922C367.359,399.36,326.558,424,280,430.32v80.558c70.633-6.602,132.902-41.863,175.145-94.102
		c0.382-0.476,0.797-0.926,1.179-1.406c1.379-1.734,2.676-3.535,4.016-5.305c1.434-1.895,2.914-3.746,4.301-5.688l-0.016-0.007
		c0.031-0.047,0.062-0.086,0.094-0.13L394.879,363.922z"></path>
	<polygon class="st0" points="170.668,344.934 170.668,363.922 341.332,363.922 341.332,345.152 341.332,345.094 341.332,345.094 
		341.332,344.934 	"></polygon>
</g>
</svg>
