<?xml version="1.0" encoding="iso-8859-1"?>
<!-- Generator: Adobe Illustrator 19.0.0, SVG Export Plug-In . SVG Version: 6.00 Build 0)  -->
<svg version="1.1" id="Layer_1" xmlns="http://www.w3.org/2000/svg" xmlns:xlink="http://www.w3.org/1999/xlink" x="0px" y="0px"
	 viewBox="0 0 512.003 512.003" style="enable-background:new 0 0 512.003 512.003;" xml:space="preserve">
<path style="fill:#2D527C;" d="M175.594,503.052h-55.22c-7.185,0-13.308-5.22-14.443-12.315l-3.523-22.022
	c-12.271-4.742-23.829-11.424-34.093-19.711l-20.856,7.972c-6.713,2.565-14.293-0.126-17.887-6.347L1.961,402.807
	c-3.593-6.223-2.132-14.134,3.443-18.665l17.317-14.07c-1.015-6.505-1.527-13.097-1.527-19.69s0.513-13.188,1.528-19.695
	L5.404,316.617c-5.577-4.531-7.036-12.442-3.443-18.664l27.611-47.824c3.593-6.225,11.174-8.913,17.888-6.349l20.857,7.974
	c10.266-8.285,21.823-14.965,34.09-19.705l3.523-22.027c1.135-7.096,7.256-12.316,14.443-12.316h55.218
	c7.185,0,13.306,5.218,14.441,12.313l4.913,30.683c1.278,7.977-4.154,15.477-12.129,16.753c-7.969,1.278-15.477-4.154-16.753-12.129
	l-2.941-18.37h-30.276l-2.937,18.367c-0.883,5.53-4.848,10.068-10.209,11.69c-14.226,4.301-27.509,11.98-38.411,22.203
	c-4.085,3.829-9.996,4.992-15.227,2.992l-17.397-6.65l-15.139,26.22l14.434,11.727c4.338,3.525,6.287,9.213,5.025,14.658
	c-1.686,7.266-2.542,14.741-2.542,22.219c0,7.479,0.854,14.953,2.54,22.212c1.265,5.445-0.684,11.136-5.024,14.661l-14.434,11.727
	L48.667,425.2l17.397-6.65c5.229-1.998,11.145-0.837,15.229,2.995c10.897,10.225,24.179,17.903,38.408,22.206
	c5.36,1.62,9.324,6.159,10.209,11.689l2.937,18.361h30.278l2.941-18.364c0.885-5.527,4.848-10.065,10.207-11.686
	c14.228-4.303,27.506-11.983,38.403-22.206c4.083-3.832,9.999-4.995,15.228-2.995l17.401,6.65l15.136-26.219l-14.435-11.727
	c-4.342-3.529-6.292-9.226-5.021-14.674c1.685-7.224,2.539-14.693,2.539-22.198c0-7.504-0.854-14.975-2.539-22.206
	c-1.834-7.867,3.057-15.73,10.924-17.564c7.87-1.834,15.73,3.057,17.564,10.924c2.192,9.406,3.304,19.11,3.304,28.846
	c0,6.608-0.512,13.201-1.525,19.692l17.315,14.067c5.577,4.531,7.036,12.442,3.444,18.664l-27.607,47.821
	c-3.593,6.225-11.174,8.916-17.887,6.349l-20.865-7.971c-10.263,8.287-21.82,14.969-34.09,19.712l-3.528,22.024
	C188.899,497.833,182.778,503.052,175.594,503.052z"/>
<circle style="fill:#CEE8FA;" cx="147.981" cy="350.384" r="43.157"/>
<path style="fill:#2D527C;" d="M147.984,408.162c-31.862,0-57.784-25.921-57.784-57.782s25.922-57.782,57.784-57.782
	s57.782,25.921,57.782,57.782S179.846,408.162,147.984,408.162z M147.984,321.847c-15.733,0-28.533,12.799-28.533,28.531
	s12.799,28.531,28.533,28.531c15.733,0,28.531-12.799,28.531-28.531C176.516,334.646,163.717,321.847,147.984,321.847z"/>
<path style="fill:#CEE8FA;" d="M476.183,161.63c0-8.783-1.009-17.324-2.922-25.526l24.114-19.591l-27.607-47.824l-29.052,11.104
	c-12.41-11.636-27.471-20.48-44.176-25.533l-4.911-30.683h-55.22l-4.907,30.683c-16.71,5.053-31.771,13.897-44.181,25.533
	l-29.048-11.104l-27.613,47.824l24.113,19.591c-1.904,8.202-2.921,16.743-2.921,25.526c0,8.777,1.016,17.324,2.921,25.521
	l-24.113,19.591l27.613,47.821l29.048-11.104c12.41,11.643,27.471,20.486,44.181,25.539l4.907,30.675h55.22l4.911-30.675
	c16.705-5.053,31.766-13.897,44.176-25.539l29.052,11.104l27.607-47.821l-24.114-19.591
	C475.173,178.953,476.183,170.406,476.183,161.63z M364.018,204.783c-23.835,0-43.157-19.322-43.157-43.157
	s19.322-43.158,43.157-43.158s43.157,19.322,43.157,43.157S387.853,204.783,364.018,204.783z"/>
<path style="fill:#2D527C;" d="M391.628,314.3h-55.22c-7.185,0-13.308-5.22-14.443-12.316l-3.522-22.022
	c-12.272-4.742-23.829-11.424-34.093-19.711l-20.856,7.972c-6.713,2.565-14.295-0.124-17.888-6.347l-27.613-47.822
	c-3.593-6.223-2.132-14.134,3.443-18.665l17.318-14.07c-1.015-6.505-1.527-13.097-1.527-19.69s0.513-13.188,1.528-19.695
	l-17.318-14.071c-5.577-4.531-7.036-12.442-3.443-18.665l27.613-47.824c3.593-6.223,11.174-8.913,17.888-6.347l20.857,7.974
	c10.264-8.284,21.823-14.965,34.09-19.705l3.522-22.029c1.135-7.096,7.256-12.316,14.443-12.316h55.22
	c7.185,0,13.306,5.218,14.443,12.313l3.526,22.03c12.266,4.74,23.823,11.421,34.088,19.705l20.863-7.974
	c6.716-2.567,14.296,0.126,17.888,6.349l27.607,47.824c3.592,6.223,2.132,14.134-3.444,18.664l-17.317,14.067
	c1.015,6.495,1.527,13.088,1.527,19.698s-0.512,13.201-1.525,19.693l17.315,14.067c5.577,4.531,7.038,12.44,3.444,18.664
	l-27.607,47.822c-3.593,6.225-11.175,8.914-17.888,6.349l-20.86-7.974c-10.263,8.288-21.821,14.969-34.09,19.712l-3.528,22.024
	C404.934,309.08,398.813,314.3,391.628,314.3z M348.881,285.049h30.278l2.941-18.362c0.885-5.528,4.848-10.065,10.207-11.687
	c14.226-4.303,27.506-11.983,38.403-22.207c4.083-3.832,9.998-4.995,15.229-2.995l17.4,6.65l15.136-26.219l-14.435-11.727
	c-4.344-3.529-6.293-9.226-5.021-14.675c1.685-7.224,2.539-14.691,2.539-22.198c0-7.504-0.854-14.976-2.54-22.206
	c-1.271-5.448,0.679-11.145,5.021-14.672l14.437-11.728l-15.137-26.218l-17.4,6.65c-5.23,1.998-11.14,0.838-15.225-2.992
	c-10.903-10.222-24.183-17.9-38.408-22.203c-5.359-1.62-9.322-6.159-10.207-11.687l-2.94-18.37h-30.278l-2.937,18.367
	c-0.883,5.53-4.848,10.068-10.209,11.69c-14.228,4.303-27.509,11.98-38.411,22.203c-4.085,3.83-9.998,4.99-15.227,2.992
	l-17.397-6.65l-15.14,26.22l14.434,11.727c4.338,3.525,6.287,9.213,5.025,14.658c-1.686,7.266-2.542,14.741-2.542,22.219
	c0,7.479,0.854,14.953,2.54,22.213c1.265,5.445-0.686,11.134-5.024,14.659l-14.434,11.727l15.14,26.219l17.397-6.65
	c5.232-1.999,11.146-0.837,15.229,2.995c10.897,10.225,24.179,17.903,38.408,22.206c5.36,1.62,9.324,6.16,10.209,11.69
	L348.881,285.049z M364.018,219.409c-31.862,0-57.782-25.921-57.782-57.782s25.921-57.782,57.782-57.782
	s57.784,25.921,57.784,57.782S395.88,219.409,364.018,219.409z M364.018,133.095c-15.733,0-28.531,12.799-28.531,28.531
	s12.799,28.531,28.531,28.531s28.533-12.799,28.533-28.531S379.751,133.095,364.018,133.095z"/>
<g>
</g>
<g>
</g>
<g>
</g>
<g>
</g>
<g>
</g>
<g>
</g>
<g>
</g>
<g>
</g>
<g>
</g>
<g>
</g>
<g>
</g>
<g>
</g>
<g>
</g>
<g>
</g>
<g>
</g>
</svg>
