<?xml version="1.0" encoding="iso-8859-1"?>
<!-- Generator: Adobe Illustrator 19.0.0, SVG Export Plug-In . SVG Version: 6.00 Build 0)  -->
<svg version="1.1" id="Layer_1" xmlns="http://www.w3.org/2000/svg" xmlns:xlink="http://www.w3.org/1999/xlink" x="0px" y="0px"
	 viewBox="0 0 512 512" style="enable-background:new 0 0 512 512;" xml:space="preserve">
<g transform="translate(1 1)">
	<g>
		<g>
			<path d="M255,476.867c52.053,0,93.867-41.813,93.867-93.867c0-52.053-41.813-93.867-93.867-93.867S161.133,330.947,161.133,383
				C161.133,435.053,202.947,476.867,255,476.867z M178.674,391.533h21.124c1.363,22.293,7.961,43.042,17.519,58.496
				C196.244,438.235,181.423,416.803,178.674,391.533z M263.533,456.891v-65.358h29.563
				C290.872,423.494,276.529,448.639,263.533,456.891z M263.533,374.467v-65.358c12.996,8.252,27.339,33.397,29.563,65.358H263.533z
				 M246.467,309.109v65.358h-29.563C219.128,342.506,233.471,317.361,246.467,309.109z M246.467,391.533v65.358
				c-12.996-8.252-27.339-33.397-29.563-65.358H246.467z M292.683,450.03c9.558-15.455,16.156-36.203,17.519-58.496h21.124
				C328.577,416.803,313.756,438.235,292.683,450.03z M331.326,374.467h-21.124c-1.363-22.293-7.961-43.042-17.519-58.496
				C313.756,327.765,328.577,349.197,331.326,374.467z M217.317,315.971c-9.558,15.455-16.156,36.203-17.519,58.496h-21.124
				C181.423,349.197,196.244,327.765,217.317,315.971z"/>
			<path d="M502.467,220.867h-85.333V147.48l19.627,19.627c1.707,1.707,3.413,2.56,5.973,2.56s4.267-0.853,5.973-2.56
				c3.413-3.413,3.413-8.533,0-11.947l-32.673-32.673c-0.689-1.239-1.681-2.232-2.92-2.92L392.387,98.84
				c-3.413-3.413-8.533-3.413-11.947,0c-3.413,3.413-3.413,8.533,0,11.947l19.627,19.627v90.453h-67.413v-59.733
				c0-24.747-11.947-47.787-32.427-62.293c-3.413-1.707-7.68-1.707-10.24,0c-20.48,14.507-48.64,14.507-69.12,0
				c-3.413-1.707-7.68-1.707-10.24,0c-20.48,14.507-32.427,37.547-32.427,62.293v59.733h-68.267v-90.453l19.627-19.627
				c3.413-3.413,3.413-8.533,0-11.947s-8.533-3.413-11.947,0l-20.726,20.726c-1.239,0.689-2.232,1.681-2.92,2.92L61.293,155.16
				c-3.413,3.413-3.413,8.533,0,11.947c1.707,1.707,3.413,2.56,5.973,2.56s4.267-0.853,5.973-2.56l19.627-19.627v73.387H7.533
				C2.413,220.867-1,224.28-1,229.4v34.133c0,5.12,3.413,8.533,8.533,8.533h8.533v230.4c0,5.12,3.413,8.533,8.533,8.533h460.8
				c5.12,0,8.533-3.413,8.533-8.533v-230.4h8.533c5.12,0,8.533-3.413,8.533-8.533V229.4C511,224.28,507.587,220.867,502.467,220.867
				z M248.173,127c5.12,0.853,9.387,0.853,14.507,0l8.533,17.067L255,170.52l-16.213-26.453L248.173,127z M195.267,161.133
				c0-17.067,7.68-33.28,20.48-45.227c4.692,2.849,9.65,5.129,14.765,6.859L221.72,139.8c-1.707,2.56-1.707,5.973,0,8.533
				L247.32,191c1.707,2.56,4.267,4.267,7.68,4.267s5.973-1.707,8.533-4.267l25.6-42.667c0.853-2.56,1.707-5.973,0-8.533
				l-8.916-17.276c4.858-1.698,9.567-3.904,14.036-6.618c12.8,11.947,20.48,28.16,20.48,45.227v59.733H195.267V161.133z
				 M476.867,493.933H33.133V272.067h443.733V493.933z M493.933,255H485.4H24.6h-8.533v-17.067h170.667h136.533h170.667V255z"/>
			<path d="M255,101.4c28.16,0,51.2-23.04,51.2-51.2C306.2,22.04,283.16-1,255-1c-28.16,0-51.2,23.04-51.2,51.2
				C203.8,78.36,226.84,101.4,255,101.4z M255,16.067c18.773,0,34.133,15.36,34.133,34.133S273.773,84.333,255,84.333
				c-18.773,0-34.133-15.36-34.133-34.133S236.227,16.067,255,16.067z"/>
		</g>
	</g>
</g>
<g>
	<g>
		<path d="M159.573,81.067l-9.387-9.387c-6.827-6.827-19.627-6.827-26.453,0l-9.387,9.387c-3.413,4.267-5.12,8.533-5.12,13.653
			c0,4.267,1.707,9.387,5.12,12.8l9.387,9.387c3.413,3.413,7.68,5.12,12.8,5.12s9.387-1.707,13.653-5.12l9.387-9.387
			c3.413-4.267,5.12-8.533,5.12-13.653C164.693,89.6,162.987,84.48,159.573,81.067z M136.533,105.813l-0.853-1.707l-9.387-9.387
			l-0.853-0.853l11.947-11.947l0.853,1.707l9.387,9.387l0.853,0.853L136.533,105.813z"/>
	</g>
</g>
<g>
	<g>
		<path d="M398.507,81.067l-9.387-9.387c-6.827-6.827-19.627-6.827-26.453,0l-9.387,9.387c-3.413,4.267-5.12,8.533-5.12,13.653
			c0,4.267,1.707,9.387,5.12,12.8l9.387,9.387c3.413,3.413,7.68,5.12,12.8,5.12s9.387-1.707,13.653-5.12l9.387-9.387
			c3.413-4.267,5.12-8.533,5.12-13.653C403.627,89.6,401.92,84.48,398.507,81.067z M375.467,105.813l-0.853-1.707l-9.387-9.387
			l-0.853-0.853L376.32,81.92l0.853,1.707l9.387,9.387l0.853,0.853L375.467,105.813z"/>
	</g>
</g>
<g>
</g>
<g>
</g>
<g>
</g>
<g>
</g>
<g>
</g>
<g>
</g>
<g>
</g>
<g>
</g>
<g>
</g>
<g>
</g>
<g>
</g>
<g>
</g>
<g>
</g>
<g>
</g>
<g>
</g>
</svg>
